<svg xmlns="http://www.w3.org/2000/svg" width="20" height="20" viewBox="0 0 20 20" fill="none">
  <path
    d="M14.9631 17.2052L10.5373 15.0353C10.2072 14.8732 10.0685 14.4747 10.2306 14.1427C10.3088 13.9845 10.4455 13.8634 10.6115 13.8048C10.7795 13.7482 10.9611 13.7579 11.1213 13.836L14.7502 15.6173L16.3166 4.89269L9.26189 13.3575V17.2911C9.26189 17.6583 8.96307 17.9571 8.59588 17.9571C8.22869 17.9571 7.92986 17.6583 7.92986 17.2911V13.1388C7.92986 13.1036 7.93182 13.0704 7.93768 13.0353C7.9533 12.9064 8.00603 12.7833 8.08807 12.6837L14.7346 4.70714L4.0783 10.2364L6.59002 11.5392C6.9201 11.713 7.05096 12.1153 6.88885 12.4493C6.81463 12.6036 6.67986 12.7208 6.51775 12.7775C6.35564 12.8341 6.17791 12.8224 6.02361 12.7482L2.3908 10.8575C2.25213 10.7853 2.14275 10.6681 2.08025 10.5255C1.99822 10.3712 1.98064 10.1896 2.03143 10.0235C2.08221 9.85558 2.19744 9.71495 2.35369 9.63292L16.9943 2.03722C17.092 1.98644 17.2013 1.96105 17.3107 1.96105C17.6369 1.95519 17.9181 2.18566 17.9767 2.50597C17.9982 2.61339 17.9943 2.72277 17.965 2.82823L15.9396 16.6974C15.8967 16.9982 15.6603 17.2208 15.3752 17.2638C15.2346 17.2892 15.09 17.2696 14.9631 17.2052Z"
    fill="white" />
</svg>