<svg xmlns="http://www.w3.org/2000/svg" width="20" height="20" viewBox="0 0 20 20" fill="none">
  <path
    d="M5.6248 7.29199C4.0148 7.29199 2.70813 8.59908 2.70813 10.2087C2.70813 10.9822 3.01542 11.7241 3.5624 12.2711C4.10938 12.818 4.85125 13.1253 5.6248 13.1253C7.23605 13.1253 8.54146 11.8203 8.54146 10.2087C8.54146 8.59908 7.23521 7.29199 5.6248 7.29199ZM5.6248 8.54199C6.5448 8.54199 7.29146 9.28908 7.29146 10.2087C7.29146 11.1295 6.54563 11.8753 5.6248 11.8753C5.18277 11.8753 4.75885 11.6997 4.44629 11.3872C4.13372 11.0746 3.95813 10.6507 3.95813 10.2087C3.95813 9.76663 4.13372 9.34271 4.44629 9.03015C4.75885 8.71759 5.18277 8.54199 5.6248 8.54199ZM14.7915 13.1253C14.2969 13.1252 13.8134 13.2718 13.4021 13.5465C12.9909 13.8213 12.6703 14.2118 12.481 14.6687C12.2917 15.1256 12.2422 15.6284 12.3387 16.1134C12.4351 16.5985 12.6733 17.0441 13.023 17.3938C13.3727 17.7435 13.8183 17.9817 14.3033 18.0781C14.7884 18.1746 15.2912 18.125 15.7481 17.9357C16.205 17.7464 16.5955 17.4259 16.8702 17.0146C17.145 16.6034 17.2915 16.1199 17.2915 15.6253C17.2915 14.2453 16.1715 13.1253 14.7915 13.1253ZM14.7915 14.3753C15.0388 14.3752 15.2806 14.4485 15.4863 14.5859C15.692 14.7233 15.8523 14.9185 15.947 15.147C16.0417 15.3755 16.0665 15.627 16.0183 15.8696C15.9701 16.1122 15.851 16.335 15.6761 16.5099C15.5012 16.6848 15.2783 16.8039 15.0357 16.8522C14.7931 16.9004 14.5417 16.8756 14.3132 16.7809C14.0847 16.6862 13.8894 16.5259 13.752 16.3202C13.6147 16.1145 13.5414 15.8727 13.5415 15.6253C13.5415 14.9353 14.1015 14.3753 14.7915 14.3753ZM14.7915 2.29199C14.2969 2.29191 13.8134 2.4385 13.4021 2.71321C12.9909 2.98793 12.6703 3.37844 12.481 3.83535C12.2917 4.29226 12.2422 4.79504 12.3387 5.28011C12.4351 5.76519 12.6733 6.21076 13.023 6.56047C13.3727 6.91019 13.8183 7.14834 14.3033 7.2448C14.7884 7.34127 15.2912 7.29172 15.7481 7.10241C16.205 6.91311 16.5955 6.59256 16.8702 6.18131C17.145 5.77005 17.2915 5.28656 17.2915 4.79199C17.2915 3.41199 16.1715 2.29199 14.7915 2.29199ZM14.7915 3.54199C15.0388 3.54191 15.2806 3.61519 15.4863 3.75255C15.692 3.88992 15.8523 4.0852 15.947 4.3137C16.0417 4.5422 16.0665 4.79366 16.0183 5.03625C15.9701 5.27885 15.851 5.50169 15.6761 5.67659C15.5012 5.85149 15.2783 5.97059 15.0357 6.01882C14.7931 6.06705 14.5417 6.04226 14.3132 5.94756C14.0847 5.85287 13.8894 5.69254 13.752 5.48684C13.6147 5.28115 13.5414 5.03934 13.5415 4.79199C13.5415 4.10199 14.1015 3.54199 14.7915 3.54199Z"
    fill="#374151" />
  <path
    d="M6.96413 11.3446C7.04944 11.2025 7.18771 11.1001 7.34852 11.06C7.50933 11.0198 7.67951 11.0452 7.82163 11.1305L13.03 14.2555C13.1703 14.3416 13.271 14.4797 13.3101 14.6397C13.3492 14.7997 13.3236 14.9686 13.2389 15.1098C13.1541 15.251 13.017 15.353 12.8574 15.3937C12.6979 15.4344 12.5287 15.4105 12.3866 15.3271L7.17829 12.2021C7.03619 12.1168 6.93379 11.9785 6.89363 11.8177C6.85346 11.6569 6.87882 11.4868 6.96413 11.3446ZM12.5595 5.1713C12.6956 5.07841 12.8629 5.04301 13.0249 5.07281C13.187 5.1026 13.3307 5.19518 13.4249 5.3304C13.519 5.46563 13.5559 5.63255 13.5276 5.79487C13.4993 5.95719 13.4081 6.10176 13.2737 6.19714L8.27371 9.67922C8.13763 9.77211 7.97037 9.80751 7.80832 9.77772C7.64627 9.74792 7.50254 9.65534 7.4084 9.52012C7.31426 9.3849 7.27733 9.21797 7.30563 9.05566C7.33394 8.89334 7.42519 8.74877 7.55954 8.65339L12.5595 5.1713Z"
    fill="#374151" />
</svg>