<svg xmlns="http://www.w3.org/2000/svg" width="24" height="24" viewBox="0 0 24 24" fill="none">
  <path
    d="M11.9999 18.5148C8.13745 18.5148 5.00726 15.3703 5.00726 11.5222V2.95006C5.00726 2.54802 5.33751 2.21777 5.73955 2.21777H18.2747C18.6767 2.21777 19.0069 2.54802 19.0069 2.95006V11.5078C18.9926 15.3847 15.8624 18.5148 11.9999 18.5148ZM6.47185 3.68236V11.5078C6.47185 14.5519 8.95589 17.0359 11.9999 17.0359C15.044 17.0359 17.528 14.5519 17.528 11.5078V3.68236H6.47185Z"
    fill="white" />
  <path
    d="M6.50085 15.4707C4.14603 15.4707 2.23633 13.561 2.23633 11.2062V6.52526C2.23633 6.12322 2.56658 5.79297 2.96862 5.79297H5.6824C6.08445 5.79297 6.4147 6.12322 6.4147 6.52526C6.4147 6.9273 6.08445 7.25755 5.6824 7.25755H3.70091V11.2205C3.70091 12.7713 4.96447 14.0205 6.50085 14.0205C6.90289 14.0205 7.23314 14.3507 7.23314 14.7528C7.23314 15.1548 6.90289 15.4707 6.50085 15.4707ZM17.4996 15.4707C17.0975 15.4707 16.7673 15.1405 16.7673 14.7384C16.7673 14.3364 17.0975 14.0061 17.4996 14.0061C19.0503 14.0061 20.2995 12.7426 20.2995 11.2062V7.25755H18.318C17.916 7.25755 17.5857 6.9273 17.5857 6.52526C17.5857 6.12322 17.916 5.79297 18.318 5.79297H21.0318C21.4338 5.79297 21.7641 6.12322 21.7641 6.52526V11.2205C21.7641 13.561 19.8544 15.4707 17.4996 15.4707ZM16.0924 22.4777H7.90799C7.50595 22.4777 7.1757 22.1475 7.1757 21.7454C7.1757 21.3434 7.50595 21.0131 7.90799 21.0131H16.1068C16.5088 21.0131 16.8391 21.3434 16.8391 21.7454C16.8391 22.1475 16.5088 22.4777 16.0924 22.4777Z"
    fill="white" />
  <path
    d="M12.0001 21.9039C11.5981 21.9039 11.2678 21.5737 11.2678 21.1716V18.2137C11.2678 17.8117 11.5981 17.4814 12.0001 17.4814C12.4022 17.4814 12.7324 17.8117 12.7324 18.2137V21.1716C12.7324 21.5737 12.4022 21.9039 12.0001 21.9039Z"
    fill="white" />
  <path
    d="M8.59271 11.9816L10.2753 9.21747C10.5325 8.79496 11.1191 8.72847 11.4643 9.0827L12.9587 10.6159C13.3105 10.9769 13.9101 10.8998 14.1592 10.4616L16.1647 6.93359"
    stroke="white" stroke-width="1.26199" stroke-linecap="round" />
</svg>